<mxfile host="Electron" modified="2023-09-25T13:40:26.812Z" agent="Mozilla/5.0 (Windows NT 10.0; Win64; x64) AppleWebKit/537.36 (KHTML, like Gecko) draw.io/21.3.7 Chrome/112.0.5615.204 Electron/24.5.0 Safari/537.36" etag="hpMcCOuw05e3Nv6UGC_M" version="21.3.7" type="device">
  <diagram id="ZPO4z2LxegBtkltKNMIm" name="Page-1">
    <mxGraphModel dx="1418" dy="1989" grid="1" gridSize="10" guides="1" tooltips="1" connect="1" arrows="1" fold="1" page="1" pageScale="1" pageWidth="827" pageHeight="1169" math="0" shadow="0">
      <root>
        <mxCell id="0" />
        <mxCell id="1" parent="0" />
        <mxCell id="qzxufjcyt8zJq0m5Qnw3-37" value="Map" style="shape=table;startSize=30;container=1;collapsible=1;childLayout=tableLayout;fixedRows=1;rowLines=0;fontStyle=1;align=center;resizeLast=1;fillColor=#f8cecc;strokeColor=#b85450;" parent="1" vertex="1">
          <mxGeometry x="76" y="-460" width="180" height="160" as="geometry" />
        </mxCell>
        <mxCell id="qzxufjcyt8zJq0m5Qnw3-41" value="" style="shape=partialRectangle;collapsible=0;dropTarget=0;pointerEvents=0;fillColor=none;top=0;left=0;bottom=1;right=0;points=[[0,0.5],[1,0.5]];portConstraint=eastwest;" parent="qzxufjcyt8zJq0m5Qnw3-37" vertex="1">
          <mxGeometry y="30" width="180" height="30" as="geometry" />
        </mxCell>
        <mxCell id="qzxufjcyt8zJq0m5Qnw3-42" value="PK" style="shape=partialRectangle;connectable=0;fillColor=none;top=0;left=0;bottom=0;right=0;fontStyle=1;overflow=hidden;" parent="qzxufjcyt8zJq0m5Qnw3-41" vertex="1">
          <mxGeometry width="60" height="30" as="geometry">
            <mxRectangle width="60" height="30" as="alternateBounds" />
          </mxGeometry>
        </mxCell>
        <mxCell id="qzxufjcyt8zJq0m5Qnw3-43" value="id" style="shape=partialRectangle;connectable=0;fillColor=none;top=0;left=0;bottom=0;right=0;align=left;spacingLeft=6;fontStyle=5;overflow=hidden;" parent="qzxufjcyt8zJq0m5Qnw3-41" vertex="1">
          <mxGeometry x="60" width="120" height="30" as="geometry">
            <mxRectangle width="120" height="30" as="alternateBounds" />
          </mxGeometry>
        </mxCell>
        <mxCell id="qzxufjcyt8zJq0m5Qnw3-44" value="" style="shape=partialRectangle;collapsible=0;dropTarget=0;pointerEvents=0;fillColor=none;top=0;left=0;bottom=0;right=0;points=[[0,0.5],[1,0.5]];portConstraint=eastwest;" parent="qzxufjcyt8zJq0m5Qnw3-37" vertex="1">
          <mxGeometry y="60" width="180" height="30" as="geometry" />
        </mxCell>
        <mxCell id="qzxufjcyt8zJq0m5Qnw3-45" value="" style="shape=partialRectangle;connectable=0;fillColor=none;top=0;left=0;bottom=0;right=0;editable=1;overflow=hidden;" parent="qzxufjcyt8zJq0m5Qnw3-44" vertex="1">
          <mxGeometry width="60" height="30" as="geometry">
            <mxRectangle width="60" height="30" as="alternateBounds" />
          </mxGeometry>
        </mxCell>
        <mxCell id="qzxufjcyt8zJq0m5Qnw3-46" value="nom" style="shape=partialRectangle;connectable=0;fillColor=none;top=0;left=0;bottom=0;right=0;align=left;spacingLeft=6;overflow=hidden;" parent="qzxufjcyt8zJq0m5Qnw3-44" vertex="1">
          <mxGeometry x="60" width="120" height="30" as="geometry">
            <mxRectangle width="120" height="30" as="alternateBounds" />
          </mxGeometry>
        </mxCell>
        <mxCell id="qzxufjcyt8zJq0m5Qnw3-47" value="" style="shape=partialRectangle;collapsible=0;dropTarget=0;pointerEvents=0;fillColor=none;top=0;left=0;bottom=0;right=0;points=[[0,0.5],[1,0.5]];portConstraint=eastwest;" parent="qzxufjcyt8zJq0m5Qnw3-37" vertex="1">
          <mxGeometry y="90" width="180" height="30" as="geometry" />
        </mxCell>
        <mxCell id="qzxufjcyt8zJq0m5Qnw3-48" value="" style="shape=partialRectangle;connectable=0;fillColor=none;top=0;left=0;bottom=0;right=0;editable=1;overflow=hidden;" parent="qzxufjcyt8zJq0m5Qnw3-47" vertex="1">
          <mxGeometry width="60" height="30" as="geometry">
            <mxRectangle width="60" height="30" as="alternateBounds" />
          </mxGeometry>
        </mxCell>
        <mxCell id="qzxufjcyt8zJq0m5Qnw3-49" value="width" style="shape=partialRectangle;connectable=0;fillColor=none;top=0;left=0;bottom=0;right=0;align=left;spacingLeft=6;overflow=hidden;" parent="qzxufjcyt8zJq0m5Qnw3-47" vertex="1">
          <mxGeometry x="60" width="120" height="30" as="geometry">
            <mxRectangle width="120" height="30" as="alternateBounds" />
          </mxGeometry>
        </mxCell>
        <mxCell id="qzxufjcyt8zJq0m5Qnw3-50" style="shape=partialRectangle;collapsible=0;dropTarget=0;pointerEvents=0;fillColor=none;top=0;left=0;bottom=0;right=0;points=[[0,0.5],[1,0.5]];portConstraint=eastwest;" parent="qzxufjcyt8zJq0m5Qnw3-37" vertex="1">
          <mxGeometry y="120" width="180" height="30" as="geometry" />
        </mxCell>
        <mxCell id="qzxufjcyt8zJq0m5Qnw3-51" style="shape=partialRectangle;connectable=0;fillColor=none;top=0;left=0;bottom=0;right=0;editable=1;overflow=hidden;" parent="qzxufjcyt8zJq0m5Qnw3-50" vertex="1">
          <mxGeometry width="60" height="30" as="geometry">
            <mxRectangle width="60" height="30" as="alternateBounds" />
          </mxGeometry>
        </mxCell>
        <mxCell id="qzxufjcyt8zJq0m5Qnw3-52" value="height" style="shape=partialRectangle;connectable=0;fillColor=none;top=0;left=0;bottom=0;right=0;align=left;spacingLeft=6;overflow=hidden;" parent="qzxufjcyt8zJq0m5Qnw3-50" vertex="1">
          <mxGeometry x="60" width="120" height="30" as="geometry">
            <mxRectangle width="120" height="30" as="alternateBounds" />
          </mxGeometry>
        </mxCell>
        <mxCell id="qzxufjcyt8zJq0m5Qnw3-53" value="Map_Tiles" style="shape=table;startSize=30;container=1;collapsible=1;childLayout=tableLayout;fixedRows=1;rowLines=0;fontStyle=1;align=center;resizeLast=1;fillColor=#f8cecc;strokeColor=#b85450;" parent="1" vertex="1">
          <mxGeometry x="65" y="-270" width="180" height="190" as="geometry" />
        </mxCell>
        <mxCell id="qzxufjcyt8zJq0m5Qnw3-54" value="" style="shape=partialRectangle;collapsible=0;dropTarget=0;pointerEvents=0;fillColor=none;top=0;left=0;bottom=0;right=0;points=[[0,0.5],[1,0.5]];portConstraint=eastwest;" parent="qzxufjcyt8zJq0m5Qnw3-53" vertex="1">
          <mxGeometry y="30" width="180" height="30" as="geometry" />
        </mxCell>
        <mxCell id="qzxufjcyt8zJq0m5Qnw3-55" value="PK" style="shape=partialRectangle;connectable=0;fillColor=none;top=0;left=0;bottom=0;right=0;fontStyle=1;overflow=hidden;" parent="qzxufjcyt8zJq0m5Qnw3-54" vertex="1">
          <mxGeometry width="60" height="30" as="geometry">
            <mxRectangle width="60" height="30" as="alternateBounds" />
          </mxGeometry>
        </mxCell>
        <mxCell id="qzxufjcyt8zJq0m5Qnw3-56" value="id" style="shape=partialRectangle;connectable=0;fillColor=none;top=0;left=0;bottom=0;right=0;align=left;spacingLeft=6;fontStyle=5;overflow=hidden;" parent="qzxufjcyt8zJq0m5Qnw3-54" vertex="1">
          <mxGeometry x="60" width="120" height="30" as="geometry">
            <mxRectangle width="120" height="30" as="alternateBounds" />
          </mxGeometry>
        </mxCell>
        <mxCell id="qzxufjcyt8zJq0m5Qnw3-57" value="" style="shape=partialRectangle;collapsible=0;dropTarget=0;pointerEvents=0;fillColor=none;top=0;left=0;bottom=1;right=0;points=[[0,0.5],[1,0.5]];portConstraint=eastwest;" parent="qzxufjcyt8zJq0m5Qnw3-53" vertex="1">
          <mxGeometry y="60" width="180" height="30" as="geometry" />
        </mxCell>
        <mxCell id="qzxufjcyt8zJq0m5Qnw3-58" value="FK1" style="shape=partialRectangle;connectable=0;fillColor=none;top=0;left=0;bottom=0;right=0;fontStyle=1;overflow=hidden;" parent="qzxufjcyt8zJq0m5Qnw3-57" vertex="1">
          <mxGeometry width="60" height="30" as="geometry">
            <mxRectangle width="60" height="30" as="alternateBounds" />
          </mxGeometry>
        </mxCell>
        <mxCell id="qzxufjcyt8zJq0m5Qnw3-59" value="map_id" style="shape=partialRectangle;connectable=0;fillColor=none;top=0;left=0;bottom=0;right=0;align=left;spacingLeft=6;fontStyle=5;overflow=hidden;" parent="qzxufjcyt8zJq0m5Qnw3-57" vertex="1">
          <mxGeometry x="60" width="120" height="30" as="geometry">
            <mxRectangle width="120" height="30" as="alternateBounds" />
          </mxGeometry>
        </mxCell>
        <mxCell id="qzxufjcyt8zJq0m5Qnw3-60" value="" style="shape=partialRectangle;collapsible=0;dropTarget=0;pointerEvents=0;fillColor=none;top=0;left=0;bottom=0;right=0;points=[[0,0.5],[1,0.5]];portConstraint=eastwest;" parent="qzxufjcyt8zJq0m5Qnw3-53" vertex="1">
          <mxGeometry y="90" width="180" height="30" as="geometry" />
        </mxCell>
        <mxCell id="qzxufjcyt8zJq0m5Qnw3-61" value="" style="shape=partialRectangle;connectable=0;fillColor=none;top=0;left=0;bottom=0;right=0;editable=1;overflow=hidden;" parent="qzxufjcyt8zJq0m5Qnw3-60" vertex="1">
          <mxGeometry width="60" height="30" as="geometry">
            <mxRectangle width="60" height="30" as="alternateBounds" />
          </mxGeometry>
        </mxCell>
        <mxCell id="qzxufjcyt8zJq0m5Qnw3-62" value="x_coords" style="shape=partialRectangle;connectable=0;fillColor=none;top=0;left=0;bottom=0;right=0;align=left;spacingLeft=6;overflow=hidden;" parent="qzxufjcyt8zJq0m5Qnw3-60" vertex="1">
          <mxGeometry x="60" width="120" height="30" as="geometry">
            <mxRectangle width="120" height="30" as="alternateBounds" />
          </mxGeometry>
        </mxCell>
        <mxCell id="qzxufjcyt8zJq0m5Qnw3-63" value="" style="shape=partialRectangle;collapsible=0;dropTarget=0;pointerEvents=0;fillColor=none;top=0;left=0;bottom=0;right=0;points=[[0,0.5],[1,0.5]];portConstraint=eastwest;" parent="qzxufjcyt8zJq0m5Qnw3-53" vertex="1">
          <mxGeometry y="120" width="180" height="30" as="geometry" />
        </mxCell>
        <mxCell id="qzxufjcyt8zJq0m5Qnw3-64" value="" style="shape=partialRectangle;connectable=0;fillColor=none;top=0;left=0;bottom=0;right=0;editable=1;overflow=hidden;" parent="qzxufjcyt8zJq0m5Qnw3-63" vertex="1">
          <mxGeometry width="60" height="30" as="geometry">
            <mxRectangle width="60" height="30" as="alternateBounds" />
          </mxGeometry>
        </mxCell>
        <mxCell id="qzxufjcyt8zJq0m5Qnw3-65" value="y_coords" style="shape=partialRectangle;connectable=0;fillColor=none;top=0;left=0;bottom=0;right=0;align=left;spacingLeft=6;overflow=hidden;" parent="qzxufjcyt8zJq0m5Qnw3-63" vertex="1">
          <mxGeometry x="60" width="120" height="30" as="geometry">
            <mxRectangle width="120" height="30" as="alternateBounds" />
          </mxGeometry>
        </mxCell>
        <mxCell id="qzxufjcyt8zJq0m5Qnw3-69" style="shape=partialRectangle;collapsible=0;dropTarget=0;pointerEvents=0;fillColor=none;top=0;left=0;bottom=0;right=0;points=[[0,0.5],[1,0.5]];portConstraint=eastwest;" parent="qzxufjcyt8zJq0m5Qnw3-53" vertex="1">
          <mxGeometry y="150" width="180" height="30" as="geometry" />
        </mxCell>
        <mxCell id="qzxufjcyt8zJq0m5Qnw3-70" style="shape=partialRectangle;connectable=0;fillColor=none;top=0;left=0;bottom=0;right=0;editable=1;overflow=hidden;" parent="qzxufjcyt8zJq0m5Qnw3-69" vertex="1">
          <mxGeometry width="60" height="30" as="geometry">
            <mxRectangle width="60" height="30" as="alternateBounds" />
          </mxGeometry>
        </mxCell>
        <mxCell id="qzxufjcyt8zJq0m5Qnw3-71" value="tiles_id (enum)" style="shape=partialRectangle;connectable=0;fillColor=none;top=0;left=0;bottom=0;right=0;align=left;spacingLeft=6;overflow=hidden;" parent="qzxufjcyt8zJq0m5Qnw3-69" vertex="1">
          <mxGeometry x="60" width="120" height="30" as="geometry">
            <mxRectangle width="120" height="30" as="alternateBounds" />
          </mxGeometry>
        </mxCell>
        <mxCell id="qzxufjcyt8zJq0m5Qnw3-75" value="Item_type" style="shape=table;startSize=30;container=1;collapsible=1;childLayout=tableLayout;fixedRows=1;rowLines=0;fontStyle=1;align=center;resizeLast=1;swimlaneFillColor=none;strokeColor=#6c8ebf;fillColor=#dae8fc;" parent="1" vertex="1">
          <mxGeometry x="350" y="-1160" width="180" height="130" as="geometry" />
        </mxCell>
        <mxCell id="qzxufjcyt8zJq0m5Qnw3-76" value="" style="shape=partialRectangle;collapsible=0;dropTarget=0;pointerEvents=0;fillColor=none;top=0;left=0;bottom=1;right=0;points=[[0,0.5],[1,0.5]];portConstraint=eastwest;" parent="qzxufjcyt8zJq0m5Qnw3-75" vertex="1">
          <mxGeometry y="30" width="180" height="30" as="geometry" />
        </mxCell>
        <mxCell id="qzxufjcyt8zJq0m5Qnw3-77" value="PK" style="shape=partialRectangle;connectable=0;fillColor=none;top=0;left=0;bottom=0;right=0;fontStyle=1;overflow=hidden;" parent="qzxufjcyt8zJq0m5Qnw3-76" vertex="1">
          <mxGeometry width="60" height="30" as="geometry">
            <mxRectangle width="60" height="30" as="alternateBounds" />
          </mxGeometry>
        </mxCell>
        <mxCell id="qzxufjcyt8zJq0m5Qnw3-78" value="id" style="shape=partialRectangle;connectable=0;fillColor=none;top=0;left=0;bottom=0;right=0;align=left;spacingLeft=6;fontStyle=5;overflow=hidden;" parent="qzxufjcyt8zJq0m5Qnw3-76" vertex="1">
          <mxGeometry x="60" width="120" height="30" as="geometry">
            <mxRectangle width="120" height="30" as="alternateBounds" />
          </mxGeometry>
        </mxCell>
        <mxCell id="qzxufjcyt8zJq0m5Qnw3-79" value="" style="shape=partialRectangle;collapsible=0;dropTarget=0;pointerEvents=0;fillColor=none;top=0;left=0;bottom=0;right=0;points=[[0,0.5],[1,0.5]];portConstraint=eastwest;" parent="qzxufjcyt8zJq0m5Qnw3-75" vertex="1">
          <mxGeometry y="60" width="180" height="30" as="geometry" />
        </mxCell>
        <mxCell id="qzxufjcyt8zJq0m5Qnw3-80" value="" style="shape=partialRectangle;connectable=0;fillColor=none;top=0;left=0;bottom=0;right=0;editable=1;overflow=hidden;" parent="qzxufjcyt8zJq0m5Qnw3-79" vertex="1">
          <mxGeometry width="60" height="30" as="geometry">
            <mxRectangle width="60" height="30" as="alternateBounds" />
          </mxGeometry>
        </mxCell>
        <mxCell id="qzxufjcyt8zJq0m5Qnw3-81" value="name" style="shape=partialRectangle;connectable=0;fillColor=none;top=0;left=0;bottom=0;right=0;align=left;spacingLeft=6;overflow=hidden;" parent="qzxufjcyt8zJq0m5Qnw3-79" vertex="1">
          <mxGeometry x="60" width="120" height="30" as="geometry">
            <mxRectangle width="120" height="30" as="alternateBounds" />
          </mxGeometry>
        </mxCell>
        <mxCell id="qzxufjcyt8zJq0m5Qnw3-82" value="" style="shape=partialRectangle;collapsible=0;dropTarget=0;pointerEvents=0;fillColor=none;top=0;left=0;bottom=0;right=0;points=[[0,0.5],[1,0.5]];portConstraint=eastwest;" parent="qzxufjcyt8zJq0m5Qnw3-75" vertex="1">
          <mxGeometry y="90" width="180" height="30" as="geometry" />
        </mxCell>
        <mxCell id="qzxufjcyt8zJq0m5Qnw3-83" value="" style="shape=partialRectangle;connectable=0;fillColor=none;top=0;left=0;bottom=0;right=0;editable=1;overflow=hidden;" parent="qzxufjcyt8zJq0m5Qnw3-82" vertex="1">
          <mxGeometry width="60" height="30" as="geometry">
            <mxRectangle width="60" height="30" as="alternateBounds" />
          </mxGeometry>
        </mxCell>
        <mxCell id="qzxufjcyt8zJq0m5Qnw3-84" value="icon" style="shape=partialRectangle;connectable=0;fillColor=none;top=0;left=0;bottom=0;right=0;align=left;spacingLeft=6;overflow=hidden;" parent="qzxufjcyt8zJq0m5Qnw3-82" vertex="1">
          <mxGeometry x="60" width="120" height="30" as="geometry">
            <mxRectangle width="120" height="30" as="alternateBounds" />
          </mxGeometry>
        </mxCell>
        <mxCell id="qzxufjcyt8zJq0m5Qnw3-88" value="Item_modifier" style="shape=table;startSize=30;container=1;collapsible=1;childLayout=tableLayout;fixedRows=1;rowLines=0;fontStyle=1;align=center;resizeLast=1;fillColor=#dae8fc;strokeColor=#6c8ebf;" parent="1" vertex="1">
          <mxGeometry x="636" y="-1160" width="180" height="160" as="geometry" />
        </mxCell>
        <mxCell id="qzxufjcyt8zJq0m5Qnw3-89" value="" style="shape=partialRectangle;collapsible=0;dropTarget=0;pointerEvents=0;fillColor=none;top=0;left=0;bottom=1;right=0;points=[[0,0.5],[1,0.5]];portConstraint=eastwest;" parent="qzxufjcyt8zJq0m5Qnw3-88" vertex="1">
          <mxGeometry y="30" width="180" height="30" as="geometry" />
        </mxCell>
        <mxCell id="qzxufjcyt8zJq0m5Qnw3-90" value="PK" style="shape=partialRectangle;connectable=0;fillColor=none;top=0;left=0;bottom=0;right=0;fontStyle=1;overflow=hidden;" parent="qzxufjcyt8zJq0m5Qnw3-89" vertex="1">
          <mxGeometry width="60" height="30" as="geometry">
            <mxRectangle width="60" height="30" as="alternateBounds" />
          </mxGeometry>
        </mxCell>
        <mxCell id="qzxufjcyt8zJq0m5Qnw3-91" value="id" style="shape=partialRectangle;connectable=0;fillColor=none;top=0;left=0;bottom=0;right=0;align=left;spacingLeft=6;fontStyle=5;overflow=hidden;" parent="qzxufjcyt8zJq0m5Qnw3-89" vertex="1">
          <mxGeometry x="60" width="120" height="30" as="geometry">
            <mxRectangle width="120" height="30" as="alternateBounds" />
          </mxGeometry>
        </mxCell>
        <mxCell id="qzxufjcyt8zJq0m5Qnw3-92" value="" style="shape=partialRectangle;collapsible=0;dropTarget=0;pointerEvents=0;fillColor=none;top=0;left=0;bottom=0;right=0;points=[[0,0.5],[1,0.5]];portConstraint=eastwest;" parent="qzxufjcyt8zJq0m5Qnw3-88" vertex="1">
          <mxGeometry y="60" width="180" height="30" as="geometry" />
        </mxCell>
        <mxCell id="qzxufjcyt8zJq0m5Qnw3-93" value="" style="shape=partialRectangle;connectable=0;fillColor=none;top=0;left=0;bottom=0;right=0;editable=1;overflow=hidden;" parent="qzxufjcyt8zJq0m5Qnw3-92" vertex="1">
          <mxGeometry width="60" height="30" as="geometry">
            <mxRectangle width="60" height="30" as="alternateBounds" />
          </mxGeometry>
        </mxCell>
        <mxCell id="qzxufjcyt8zJq0m5Qnw3-94" value="item_id" style="shape=partialRectangle;connectable=0;fillColor=none;top=0;left=0;bottom=0;right=0;align=left;spacingLeft=6;overflow=hidden;" parent="qzxufjcyt8zJq0m5Qnw3-92" vertex="1">
          <mxGeometry x="60" width="120" height="30" as="geometry">
            <mxRectangle width="120" height="30" as="alternateBounds" />
          </mxGeometry>
        </mxCell>
        <mxCell id="qzxufjcyt8zJq0m5Qnw3-95" value="" style="shape=partialRectangle;collapsible=0;dropTarget=0;pointerEvents=0;fillColor=none;top=0;left=0;bottom=0;right=0;points=[[0,0.5],[1,0.5]];portConstraint=eastwest;" parent="qzxufjcyt8zJq0m5Qnw3-88" vertex="1">
          <mxGeometry y="90" width="180" height="30" as="geometry" />
        </mxCell>
        <mxCell id="qzxufjcyt8zJq0m5Qnw3-96" value="" style="shape=partialRectangle;connectable=0;fillColor=none;top=0;left=0;bottom=0;right=0;editable=1;overflow=hidden;" parent="qzxufjcyt8zJq0m5Qnw3-95" vertex="1">
          <mxGeometry width="60" height="30" as="geometry">
            <mxRectangle width="60" height="30" as="alternateBounds" />
          </mxGeometry>
        </mxCell>
        <mxCell id="qzxufjcyt8zJq0m5Qnw3-97" value="modifier_enum" style="shape=partialRectangle;connectable=0;fillColor=none;top=0;left=0;bottom=0;right=0;align=left;spacingLeft=6;overflow=hidden;" parent="qzxufjcyt8zJq0m5Qnw3-95" vertex="1">
          <mxGeometry x="60" width="120" height="30" as="geometry">
            <mxRectangle width="120" height="30" as="alternateBounds" />
          </mxGeometry>
        </mxCell>
        <mxCell id="qzxufjcyt8zJq0m5Qnw3-98" style="shape=partialRectangle;collapsible=0;dropTarget=0;pointerEvents=0;fillColor=none;top=0;left=0;bottom=0;right=0;points=[[0,0.5],[1,0.5]];portConstraint=eastwest;" parent="qzxufjcyt8zJq0m5Qnw3-88" vertex="1">
          <mxGeometry y="120" width="180" height="30" as="geometry" />
        </mxCell>
        <mxCell id="qzxufjcyt8zJq0m5Qnw3-99" style="shape=partialRectangle;connectable=0;fillColor=none;top=0;left=0;bottom=0;right=0;editable=1;overflow=hidden;" parent="qzxufjcyt8zJq0m5Qnw3-98" vertex="1">
          <mxGeometry width="60" height="30" as="geometry">
            <mxRectangle width="60" height="30" as="alternateBounds" />
          </mxGeometry>
        </mxCell>
        <mxCell id="qzxufjcyt8zJq0m5Qnw3-100" value="modifier_value" style="shape=partialRectangle;connectable=0;fillColor=none;top=0;left=0;bottom=0;right=0;align=left;spacingLeft=6;overflow=hidden;" parent="qzxufjcyt8zJq0m5Qnw3-98" vertex="1">
          <mxGeometry x="60" width="120" height="30" as="geometry">
            <mxRectangle width="120" height="30" as="alternateBounds" />
          </mxGeometry>
        </mxCell>
        <mxCell id="qzxufjcyt8zJq0m5Qnw3-101" value="Item" style="shape=table;startSize=30;container=1;collapsible=1;childLayout=tableLayout;fixedRows=1;rowLines=0;fontStyle=1;align=center;resizeLast=1;fillColor=#dae8fc;strokeColor=#6c8ebf;" parent="1" vertex="1">
          <mxGeometry x="456" y="-980" width="180" height="100" as="geometry" />
        </mxCell>
        <mxCell id="qzxufjcyt8zJq0m5Qnw3-102" value="" style="shape=partialRectangle;collapsible=0;dropTarget=0;pointerEvents=0;fillColor=none;top=0;left=0;bottom=1;right=0;points=[[0,0.5],[1,0.5]];portConstraint=eastwest;" parent="qzxufjcyt8zJq0m5Qnw3-101" vertex="1">
          <mxGeometry y="30" width="180" height="30" as="geometry" />
        </mxCell>
        <mxCell id="qzxufjcyt8zJq0m5Qnw3-103" value="PK" style="shape=partialRectangle;connectable=0;fillColor=none;top=0;left=0;bottom=0;right=0;fontStyle=1;overflow=hidden;" parent="qzxufjcyt8zJq0m5Qnw3-102" vertex="1">
          <mxGeometry width="60" height="30" as="geometry">
            <mxRectangle width="60" height="30" as="alternateBounds" />
          </mxGeometry>
        </mxCell>
        <mxCell id="qzxufjcyt8zJq0m5Qnw3-104" value="id" style="shape=partialRectangle;connectable=0;fillColor=none;top=0;left=0;bottom=0;right=0;align=left;spacingLeft=6;fontStyle=5;overflow=hidden;" parent="qzxufjcyt8zJq0m5Qnw3-102" vertex="1">
          <mxGeometry x="60" width="120" height="30" as="geometry">
            <mxRectangle width="120" height="30" as="alternateBounds" />
          </mxGeometry>
        </mxCell>
        <mxCell id="qzxufjcyt8zJq0m5Qnw3-105" value="" style="shape=partialRectangle;collapsible=0;dropTarget=0;pointerEvents=0;fillColor=none;top=0;left=0;bottom=0;right=0;points=[[0,0.5],[1,0.5]];portConstraint=eastwest;" parent="qzxufjcyt8zJq0m5Qnw3-101" vertex="1">
          <mxGeometry y="60" width="180" height="30" as="geometry" />
        </mxCell>
        <mxCell id="qzxufjcyt8zJq0m5Qnw3-106" value="" style="shape=partialRectangle;connectable=0;fillColor=none;top=0;left=0;bottom=0;right=0;editable=1;overflow=hidden;" parent="qzxufjcyt8zJq0m5Qnw3-105" vertex="1">
          <mxGeometry width="60" height="30" as="geometry">
            <mxRectangle width="60" height="30" as="alternateBounds" />
          </mxGeometry>
        </mxCell>
        <mxCell id="qzxufjcyt8zJq0m5Qnw3-107" value="type" style="shape=partialRectangle;connectable=0;fillColor=none;top=0;left=0;bottom=0;right=0;align=left;spacingLeft=6;overflow=hidden;" parent="qzxufjcyt8zJq0m5Qnw3-105" vertex="1">
          <mxGeometry x="60" width="120" height="30" as="geometry">
            <mxRectangle width="120" height="30" as="alternateBounds" />
          </mxGeometry>
        </mxCell>
        <mxCell id="D1n0Vyd0BsLQv1EA76nx-1" value="joueur_items" style="shape=table;startSize=30;container=1;collapsible=1;childLayout=tableLayout;fixedRows=1;rowLines=0;fontStyle=1;align=center;resizeLast=1;fillColor=#dae8fc;strokeColor=#6c8ebf;gradientDirection=west;gradientColor=#67AB9F;" parent="1" vertex="1">
          <mxGeometry x="275" y="-850" width="250" height="130" as="geometry" />
        </mxCell>
        <mxCell id="D1n0Vyd0BsLQv1EA76nx-2" value="" style="shape=partialRectangle;collapsible=0;dropTarget=0;pointerEvents=0;fillColor=none;points=[[0,0.5],[1,0.5]];portConstraint=eastwest;top=0;left=0;right=0;bottom=1;" parent="D1n0Vyd0BsLQv1EA76nx-1" vertex="1">
          <mxGeometry y="30" width="250" height="30" as="geometry" />
        </mxCell>
        <mxCell id="D1n0Vyd0BsLQv1EA76nx-3" value="PK" style="shape=partialRectangle;overflow=hidden;connectable=0;fillColor=none;top=0;left=0;bottom=0;right=0;fontStyle=1;" parent="D1n0Vyd0BsLQv1EA76nx-2" vertex="1">
          <mxGeometry width="30" height="30" as="geometry">
            <mxRectangle width="30" height="30" as="alternateBounds" />
          </mxGeometry>
        </mxCell>
        <mxCell id="D1n0Vyd0BsLQv1EA76nx-4" value="inventaire_id SEQ NOT NULL" style="shape=partialRectangle;overflow=hidden;connectable=0;fillColor=none;top=0;left=0;bottom=0;right=0;align=left;spacingLeft=6;fontStyle=5;" parent="D1n0Vyd0BsLQv1EA76nx-2" vertex="1">
          <mxGeometry x="30" width="220" height="30" as="geometry">
            <mxRectangle width="220" height="30" as="alternateBounds" />
          </mxGeometry>
        </mxCell>
        <mxCell id="D1n0Vyd0BsLQv1EA76nx-5" value="" style="shape=partialRectangle;collapsible=0;dropTarget=0;pointerEvents=0;fillColor=none;points=[[0,0.5],[1,0.5]];portConstraint=eastwest;top=0;left=0;right=0;bottom=0;" parent="D1n0Vyd0BsLQv1EA76nx-1" vertex="1">
          <mxGeometry y="60" width="250" height="30" as="geometry" />
        </mxCell>
        <mxCell id="D1n0Vyd0BsLQv1EA76nx-6" value="" style="shape=partialRectangle;overflow=hidden;connectable=0;fillColor=none;top=0;left=0;bottom=0;right=0;" parent="D1n0Vyd0BsLQv1EA76nx-5" vertex="1">
          <mxGeometry width="30" height="30" as="geometry">
            <mxRectangle width="30" height="30" as="alternateBounds" />
          </mxGeometry>
        </mxCell>
        <mxCell id="D1n0Vyd0BsLQv1EA76nx-7" value="player_id INT NOT NULL" style="shape=partialRectangle;overflow=hidden;connectable=0;fillColor=none;top=0;left=0;bottom=0;right=0;align=left;spacingLeft=6;" parent="D1n0Vyd0BsLQv1EA76nx-5" vertex="1">
          <mxGeometry x="30" width="220" height="30" as="geometry">
            <mxRectangle width="220" height="30" as="alternateBounds" />
          </mxGeometry>
        </mxCell>
        <mxCell id="D1n0Vyd0BsLQv1EA76nx-8" value="" style="shape=partialRectangle;collapsible=0;dropTarget=0;pointerEvents=0;fillColor=none;points=[[0,0.5],[1,0.5]];portConstraint=eastwest;top=0;left=0;right=0;bottom=0;" parent="D1n0Vyd0BsLQv1EA76nx-1" vertex="1">
          <mxGeometry y="90" width="250" height="30" as="geometry" />
        </mxCell>
        <mxCell id="D1n0Vyd0BsLQv1EA76nx-9" value="" style="shape=partialRectangle;overflow=hidden;connectable=0;fillColor=none;top=0;left=0;bottom=0;right=0;" parent="D1n0Vyd0BsLQv1EA76nx-8" vertex="1">
          <mxGeometry width="30" height="30" as="geometry">
            <mxRectangle width="30" height="30" as="alternateBounds" />
          </mxGeometry>
        </mxCell>
        <mxCell id="D1n0Vyd0BsLQv1EA76nx-10" value="item_id INT NOT NULL" style="shape=partialRectangle;overflow=hidden;connectable=0;fillColor=none;top=0;left=0;bottom=0;right=0;align=left;spacingLeft=6;" parent="D1n0Vyd0BsLQv1EA76nx-8" vertex="1">
          <mxGeometry x="30" width="220" height="30" as="geometry">
            <mxRectangle width="220" height="30" as="alternateBounds" />
          </mxGeometry>
        </mxCell>
        <mxCell id="D1n0Vyd0BsLQv1EA76nx-11" value="Joueurs" style="shape=table;startSize=30;container=1;collapsible=1;childLayout=tableLayout;fixedRows=1;rowLines=0;fontStyle=1;align=center;resizeLast=1;fillColor=#d5e8d4;strokeColor=#82b366;" parent="1" vertex="1">
          <mxGeometry x="52" y="-990" width="206" height="100" as="geometry" />
        </mxCell>
        <mxCell id="D1n0Vyd0BsLQv1EA76nx-12" value="" style="shape=partialRectangle;collapsible=0;dropTarget=0;pointerEvents=0;fillColor=none;points=[[0,0.5],[1,0.5]];portConstraint=eastwest;top=0;left=0;right=0;bottom=1;" parent="D1n0Vyd0BsLQv1EA76nx-11" vertex="1">
          <mxGeometry y="30" width="206" height="30" as="geometry" />
        </mxCell>
        <mxCell id="D1n0Vyd0BsLQv1EA76nx-13" value="PK" style="shape=partialRectangle;overflow=hidden;connectable=0;fillColor=none;top=0;left=0;bottom=0;right=0;fontStyle=1;" parent="D1n0Vyd0BsLQv1EA76nx-12" vertex="1">
          <mxGeometry width="30" height="30" as="geometry">
            <mxRectangle width="30" height="30" as="alternateBounds" />
          </mxGeometry>
        </mxCell>
        <mxCell id="D1n0Vyd0BsLQv1EA76nx-14" value="joueur_id int NOT NULL " style="shape=partialRectangle;overflow=hidden;connectable=0;fillColor=none;top=0;left=0;bottom=0;right=0;align=left;spacingLeft=6;fontStyle=5;" parent="D1n0Vyd0BsLQv1EA76nx-12" vertex="1">
          <mxGeometry x="30" width="176" height="30" as="geometry">
            <mxRectangle width="176" height="30" as="alternateBounds" />
          </mxGeometry>
        </mxCell>
        <mxCell id="D1n0Vyd0BsLQv1EA76nx-15" value="" style="shape=partialRectangle;collapsible=0;dropTarget=0;pointerEvents=0;fillColor=none;points=[[0,0.5],[1,0.5]];portConstraint=eastwest;top=0;left=0;right=0;bottom=0;" parent="D1n0Vyd0BsLQv1EA76nx-11" vertex="1">
          <mxGeometry y="60" width="206" height="30" as="geometry" />
        </mxCell>
        <mxCell id="D1n0Vyd0BsLQv1EA76nx-16" value="" style="shape=partialRectangle;overflow=hidden;connectable=0;fillColor=none;top=0;left=0;bottom=0;right=0;" parent="D1n0Vyd0BsLQv1EA76nx-15" vertex="1">
          <mxGeometry width="30" height="30" as="geometry">
            <mxRectangle width="30" height="30" as="alternateBounds" />
          </mxGeometry>
        </mxCell>
        <mxCell id="D1n0Vyd0BsLQv1EA76nx-17" value="username char(50) NOT NULL" style="shape=partialRectangle;overflow=hidden;connectable=0;fillColor=none;top=0;left=0;bottom=0;right=0;align=left;spacingLeft=6;" parent="D1n0Vyd0BsLQv1EA76nx-15" vertex="1">
          <mxGeometry x="30" width="176" height="30" as="geometry">
            <mxRectangle width="176" height="30" as="alternateBounds" />
          </mxGeometry>
        </mxCell>
        <mxCell id="v4OOAaOMqKAMVvZkMY9a-1" value="commentaire" style="shape=table;startSize=30;container=1;collapsible=1;childLayout=tableLayout;fixedRows=1;rowLines=0;fontStyle=1;align=center;resizeLast=1;fillColor=#e1d5e7;strokeColor=#9673a6;" parent="1" vertex="1">
          <mxGeometry x="560" y="-830" width="250" height="160" as="geometry">
            <mxRectangle x="80" y="520" width="120" height="30" as="alternateBounds" />
          </mxGeometry>
        </mxCell>
        <mxCell id="v4OOAaOMqKAMVvZkMY9a-2" value="" style="shape=partialRectangle;collapsible=0;dropTarget=0;pointerEvents=0;fillColor=none;points=[[0,0.5],[1,0.5]];portConstraint=eastwest;top=0;left=0;right=0;bottom=1;" parent="v4OOAaOMqKAMVvZkMY9a-1" vertex="1">
          <mxGeometry y="30" width="250" height="30" as="geometry" />
        </mxCell>
        <mxCell id="v4OOAaOMqKAMVvZkMY9a-3" value="PK" style="shape=partialRectangle;overflow=hidden;connectable=0;fillColor=none;top=0;left=0;bottom=0;right=0;fontStyle=1;" parent="v4OOAaOMqKAMVvZkMY9a-2" vertex="1">
          <mxGeometry width="30" height="30" as="geometry">
            <mxRectangle width="30" height="30" as="alternateBounds" />
          </mxGeometry>
        </mxCell>
        <mxCell id="v4OOAaOMqKAMVvZkMY9a-4" value="commentaire_id int NOT NULL " style="shape=partialRectangle;overflow=hidden;connectable=0;fillColor=none;top=0;left=0;bottom=0;right=0;align=left;spacingLeft=6;fontStyle=5;" parent="v4OOAaOMqKAMVvZkMY9a-2" vertex="1">
          <mxGeometry x="30" width="220" height="30" as="geometry">
            <mxRectangle width="220" height="30" as="alternateBounds" />
          </mxGeometry>
        </mxCell>
        <mxCell id="v4OOAaOMqKAMVvZkMY9a-5" value="" style="shape=partialRectangle;collapsible=0;dropTarget=0;pointerEvents=0;fillColor=none;points=[[0,0.5],[1,0.5]];portConstraint=eastwest;top=0;left=0;right=0;bottom=0;" parent="v4OOAaOMqKAMVvZkMY9a-1" vertex="1">
          <mxGeometry y="60" width="250" height="30" as="geometry" />
        </mxCell>
        <mxCell id="v4OOAaOMqKAMVvZkMY9a-6" value="FK1" style="shape=partialRectangle;overflow=hidden;connectable=0;fillColor=none;top=0;left=0;bottom=0;right=0;" parent="v4OOAaOMqKAMVvZkMY9a-5" vertex="1">
          <mxGeometry width="30" height="30" as="geometry">
            <mxRectangle width="30" height="30" as="alternateBounds" />
          </mxGeometry>
        </mxCell>
        <mxCell id="v4OOAaOMqKAMVvZkMY9a-7" value="user_id int NOT NULL" style="shape=partialRectangle;overflow=hidden;connectable=0;fillColor=none;top=0;left=0;bottom=0;right=0;align=left;spacingLeft=6;" parent="v4OOAaOMqKAMVvZkMY9a-5" vertex="1">
          <mxGeometry x="30" width="220" height="30" as="geometry">
            <mxRectangle width="220" height="30" as="alternateBounds" />
          </mxGeometry>
        </mxCell>
        <mxCell id="v4OOAaOMqKAMVvZkMY9a-8" value="" style="shape=partialRectangle;collapsible=0;dropTarget=0;pointerEvents=0;fillColor=none;points=[[0,0.5],[1,0.5]];portConstraint=eastwest;top=0;left=0;right=0;bottom=0;" parent="v4OOAaOMqKAMVvZkMY9a-1" vertex="1">
          <mxGeometry y="90" width="250" height="30" as="geometry" />
        </mxCell>
        <mxCell id="v4OOAaOMqKAMVvZkMY9a-9" value="" style="shape=partialRectangle;overflow=hidden;connectable=0;fillColor=none;top=0;left=0;bottom=0;right=0;" parent="v4OOAaOMqKAMVvZkMY9a-8" vertex="1">
          <mxGeometry width="30" height="30" as="geometry">
            <mxRectangle width="30" height="30" as="alternateBounds" />
          </mxGeometry>
        </mxCell>
        <mxCell id="v4OOAaOMqKAMVvZkMY9a-10" value="date_creation date NOT NULL" style="shape=partialRectangle;overflow=hidden;connectable=0;fillColor=none;top=0;left=0;bottom=0;right=0;align=left;spacingLeft=6;" parent="v4OOAaOMqKAMVvZkMY9a-8" vertex="1">
          <mxGeometry x="30" width="220" height="30" as="geometry">
            <mxRectangle width="220" height="30" as="alternateBounds" />
          </mxGeometry>
        </mxCell>
        <mxCell id="v4OOAaOMqKAMVvZkMY9a-11" style="shape=partialRectangle;collapsible=0;dropTarget=0;pointerEvents=0;fillColor=none;points=[[0,0.5],[1,0.5]];portConstraint=eastwest;top=0;left=0;right=0;bottom=0;" parent="v4OOAaOMqKAMVvZkMY9a-1" vertex="1">
          <mxGeometry y="120" width="250" height="30" as="geometry" />
        </mxCell>
        <mxCell id="v4OOAaOMqKAMVvZkMY9a-12" style="shape=partialRectangle;overflow=hidden;connectable=0;fillColor=none;top=0;left=0;bottom=0;right=0;" parent="v4OOAaOMqKAMVvZkMY9a-11" vertex="1">
          <mxGeometry width="30" height="30" as="geometry">
            <mxRectangle width="30" height="30" as="alternateBounds" />
          </mxGeometry>
        </mxCell>
        <mxCell id="v4OOAaOMqKAMVvZkMY9a-13" value="message texte NOT NULL" style="shape=partialRectangle;overflow=hidden;connectable=0;fillColor=none;top=0;left=0;bottom=0;right=0;align=left;spacingLeft=6;" parent="v4OOAaOMqKAMVvZkMY9a-11" vertex="1">
          <mxGeometry x="30" width="220" height="30" as="geometry">
            <mxRectangle width="220" height="30" as="alternateBounds" />
          </mxGeometry>
        </mxCell>
        <mxCell id="v4OOAaOMqKAMVvZkMY9a-14" value="reponse_commentaire" style="shape=table;startSize=30;container=1;collapsible=1;childLayout=tableLayout;fixedRows=1;rowLines=0;fontStyle=1;align=center;resizeLast=1;fillColor=#e1d5e7;strokeColor=#9673a6;" parent="1" vertex="1">
          <mxGeometry x="560" y="-584" width="250" height="190" as="geometry">
            <mxRectangle x="80" y="520" width="120" height="30" as="alternateBounds" />
          </mxGeometry>
        </mxCell>
        <mxCell id="v4OOAaOMqKAMVvZkMY9a-15" value="" style="shape=partialRectangle;collapsible=0;dropTarget=0;pointerEvents=0;fillColor=none;points=[[0,0.5],[1,0.5]];portConstraint=eastwest;top=0;left=0;right=0;bottom=1;" parent="v4OOAaOMqKAMVvZkMY9a-14" vertex="1">
          <mxGeometry y="30" width="250" height="30" as="geometry" />
        </mxCell>
        <mxCell id="v4OOAaOMqKAMVvZkMY9a-16" value="PK" style="shape=partialRectangle;overflow=hidden;connectable=0;fillColor=none;top=0;left=0;bottom=0;right=0;fontStyle=1;" parent="v4OOAaOMqKAMVvZkMY9a-15" vertex="1">
          <mxGeometry width="30" height="30" as="geometry">
            <mxRectangle width="30" height="30" as="alternateBounds" />
          </mxGeometry>
        </mxCell>
        <mxCell id="v4OOAaOMqKAMVvZkMY9a-17" value="commentaire_id int NOT NULL " style="shape=partialRectangle;overflow=hidden;connectable=0;fillColor=none;top=0;left=0;bottom=0;right=0;align=left;spacingLeft=6;fontStyle=5;" parent="v4OOAaOMqKAMVvZkMY9a-15" vertex="1">
          <mxGeometry x="30" width="220" height="30" as="geometry">
            <mxRectangle width="220" height="30" as="alternateBounds" />
          </mxGeometry>
        </mxCell>
        <mxCell id="v4OOAaOMqKAMVvZkMY9a-18" value="" style="shape=partialRectangle;collapsible=0;dropTarget=0;pointerEvents=0;fillColor=none;points=[[0,0.5],[1,0.5]];portConstraint=eastwest;top=0;left=0;right=0;bottom=0;" parent="v4OOAaOMqKAMVvZkMY9a-14" vertex="1">
          <mxGeometry y="60" width="250" height="30" as="geometry" />
        </mxCell>
        <mxCell id="v4OOAaOMqKAMVvZkMY9a-19" value="FK1" style="shape=partialRectangle;overflow=hidden;connectable=0;fillColor=none;top=0;left=0;bottom=0;right=0;" parent="v4OOAaOMqKAMVvZkMY9a-18" vertex="1">
          <mxGeometry width="30" height="30" as="geometry">
            <mxRectangle width="30" height="30" as="alternateBounds" />
          </mxGeometry>
        </mxCell>
        <mxCell id="v4OOAaOMqKAMVvZkMY9a-20" value="commentaire_id int NOT NULL" style="shape=partialRectangle;overflow=hidden;connectable=0;fillColor=none;top=0;left=0;bottom=0;right=0;align=left;spacingLeft=6;" parent="v4OOAaOMqKAMVvZkMY9a-18" vertex="1">
          <mxGeometry x="30" width="220" height="30" as="geometry">
            <mxRectangle width="220" height="30" as="alternateBounds" />
          </mxGeometry>
        </mxCell>
        <mxCell id="v4OOAaOMqKAMVvZkMY9a-21" style="shape=partialRectangle;collapsible=0;dropTarget=0;pointerEvents=0;fillColor=none;points=[[0,0.5],[1,0.5]];portConstraint=eastwest;top=0;left=0;right=0;bottom=0;" parent="v4OOAaOMqKAMVvZkMY9a-14" vertex="1">
          <mxGeometry y="90" width="250" height="30" as="geometry" />
        </mxCell>
        <mxCell id="v4OOAaOMqKAMVvZkMY9a-22" value="FK2 " style="shape=partialRectangle;overflow=hidden;connectable=0;fillColor=none;top=0;left=0;bottom=0;right=0;" parent="v4OOAaOMqKAMVvZkMY9a-21" vertex="1">
          <mxGeometry width="30" height="30" as="geometry">
            <mxRectangle width="30" height="30" as="alternateBounds" />
          </mxGeometry>
        </mxCell>
        <mxCell id="v4OOAaOMqKAMVvZkMY9a-23" value="user_id int NOT NULL" style="shape=partialRectangle;overflow=hidden;connectable=0;fillColor=none;top=0;left=0;bottom=0;right=0;align=left;spacingLeft=6;" parent="v4OOAaOMqKAMVvZkMY9a-21" vertex="1">
          <mxGeometry x="30" width="220" height="30" as="geometry">
            <mxRectangle width="220" height="30" as="alternateBounds" />
          </mxGeometry>
        </mxCell>
        <mxCell id="v4OOAaOMqKAMVvZkMY9a-24" value="" style="shape=partialRectangle;collapsible=0;dropTarget=0;pointerEvents=0;fillColor=none;points=[[0,0.5],[1,0.5]];portConstraint=eastwest;top=0;left=0;right=0;bottom=0;" parent="v4OOAaOMqKAMVvZkMY9a-14" vertex="1">
          <mxGeometry y="120" width="250" height="30" as="geometry" />
        </mxCell>
        <mxCell id="v4OOAaOMqKAMVvZkMY9a-25" value="" style="shape=partialRectangle;overflow=hidden;connectable=0;fillColor=none;top=0;left=0;bottom=0;right=0;" parent="v4OOAaOMqKAMVvZkMY9a-24" vertex="1">
          <mxGeometry width="30" height="30" as="geometry">
            <mxRectangle width="30" height="30" as="alternateBounds" />
          </mxGeometry>
        </mxCell>
        <mxCell id="v4OOAaOMqKAMVvZkMY9a-26" value="date_creation date NOT NULL" style="shape=partialRectangle;overflow=hidden;connectable=0;fillColor=none;top=0;left=0;bottom=0;right=0;align=left;spacingLeft=6;" parent="v4OOAaOMqKAMVvZkMY9a-24" vertex="1">
          <mxGeometry x="30" width="220" height="30" as="geometry">
            <mxRectangle width="220" height="30" as="alternateBounds" />
          </mxGeometry>
        </mxCell>
        <mxCell id="v4OOAaOMqKAMVvZkMY9a-27" style="shape=partialRectangle;collapsible=0;dropTarget=0;pointerEvents=0;fillColor=none;points=[[0,0.5],[1,0.5]];portConstraint=eastwest;top=0;left=0;right=0;bottom=0;" parent="v4OOAaOMqKAMVvZkMY9a-14" vertex="1">
          <mxGeometry y="150" width="250" height="30" as="geometry" />
        </mxCell>
        <mxCell id="v4OOAaOMqKAMVvZkMY9a-28" style="shape=partialRectangle;overflow=hidden;connectable=0;fillColor=none;top=0;left=0;bottom=0;right=0;" parent="v4OOAaOMqKAMVvZkMY9a-27" vertex="1">
          <mxGeometry width="30" height="30" as="geometry">
            <mxRectangle width="30" height="30" as="alternateBounds" />
          </mxGeometry>
        </mxCell>
        <mxCell id="v4OOAaOMqKAMVvZkMY9a-29" value="reponse texte NOT NULL" style="shape=partialRectangle;overflow=hidden;connectable=0;fillColor=none;top=0;left=0;bottom=0;right=0;align=left;spacingLeft=6;" parent="v4OOAaOMqKAMVvZkMY9a-27" vertex="1">
          <mxGeometry x="30" width="220" height="30" as="geometry">
            <mxRectangle width="220" height="30" as="alternateBounds" />
          </mxGeometry>
        </mxCell>
        <mxCell id="v4OOAaOMqKAMVvZkMY9a-30" value="mot_de_passe" style="shape=table;startSize=30;container=1;collapsible=1;childLayout=tableLayout;fixedRows=1;rowLines=0;fontStyle=1;align=center;resizeLast=1;fillColor=#d5e8d4;strokeColor=#82b366;" parent="1" vertex="1">
          <mxGeometry x="52" y="-1160" width="228" height="130" as="geometry" />
        </mxCell>
        <mxCell id="v4OOAaOMqKAMVvZkMY9a-31" value="" style="shape=partialRectangle;collapsible=0;dropTarget=0;pointerEvents=0;fillColor=none;points=[[0,0.5],[1,0.5]];portConstraint=eastwest;top=0;left=0;right=0;bottom=1;" parent="v4OOAaOMqKAMVvZkMY9a-30" vertex="1">
          <mxGeometry y="30" width="228" height="30" as="geometry" />
        </mxCell>
        <mxCell id="v4OOAaOMqKAMVvZkMY9a-32" value="PK" style="shape=partialRectangle;overflow=hidden;connectable=0;fillColor=none;top=0;left=0;bottom=0;right=0;fontStyle=1;" parent="v4OOAaOMqKAMVvZkMY9a-31" vertex="1">
          <mxGeometry width="30" height="30" as="geometry">
            <mxRectangle width="30" height="30" as="alternateBounds" />
          </mxGeometry>
        </mxCell>
        <mxCell id="v4OOAaOMqKAMVvZkMY9a-33" value="mot_de_passe_id int NOT NULL " style="shape=partialRectangle;overflow=hidden;connectable=0;fillColor=none;top=0;left=0;bottom=0;right=0;align=left;spacingLeft=6;fontStyle=5;" parent="v4OOAaOMqKAMVvZkMY9a-31" vertex="1">
          <mxGeometry x="30" width="198" height="30" as="geometry">
            <mxRectangle width="198" height="30" as="alternateBounds" />
          </mxGeometry>
        </mxCell>
        <mxCell id="v4OOAaOMqKAMVvZkMY9a-34" style="shape=partialRectangle;collapsible=0;dropTarget=0;pointerEvents=0;fillColor=none;points=[[0,0.5],[1,0.5]];portConstraint=eastwest;top=0;left=0;right=0;bottom=0;" parent="v4OOAaOMqKAMVvZkMY9a-30" vertex="1">
          <mxGeometry y="60" width="228" height="30" as="geometry" />
        </mxCell>
        <mxCell id="v4OOAaOMqKAMVvZkMY9a-35" value="FK1" style="shape=partialRectangle;overflow=hidden;connectable=0;fillColor=none;top=0;left=0;bottom=0;right=0;" parent="v4OOAaOMqKAMVvZkMY9a-34" vertex="1">
          <mxGeometry width="30" height="30" as="geometry">
            <mxRectangle width="30" height="30" as="alternateBounds" />
          </mxGeometry>
        </mxCell>
        <mxCell id="v4OOAaOMqKAMVvZkMY9a-36" value="user_id int NOT NULL" style="shape=partialRectangle;overflow=hidden;connectable=0;fillColor=none;top=0;left=0;bottom=0;right=0;align=left;spacingLeft=6;" parent="v4OOAaOMqKAMVvZkMY9a-34" vertex="1">
          <mxGeometry x="30" width="198" height="30" as="geometry">
            <mxRectangle width="198" height="30" as="alternateBounds" />
          </mxGeometry>
        </mxCell>
        <mxCell id="v4OOAaOMqKAMVvZkMY9a-37" value="" style="shape=partialRectangle;collapsible=0;dropTarget=0;pointerEvents=0;fillColor=none;points=[[0,0.5],[1,0.5]];portConstraint=eastwest;top=0;left=0;right=0;bottom=0;" parent="v4OOAaOMqKAMVvZkMY9a-30" vertex="1">
          <mxGeometry y="90" width="228" height="30" as="geometry" />
        </mxCell>
        <mxCell id="v4OOAaOMqKAMVvZkMY9a-38" value="" style="shape=partialRectangle;overflow=hidden;connectable=0;fillColor=none;top=0;left=0;bottom=0;right=0;" parent="v4OOAaOMqKAMVvZkMY9a-37" vertex="1">
          <mxGeometry width="30" height="30" as="geometry">
            <mxRectangle width="30" height="30" as="alternateBounds" />
          </mxGeometry>
        </mxCell>
        <mxCell id="v4OOAaOMqKAMVvZkMY9a-39" value="mot_de_passe texte NOT NULL" style="shape=partialRectangle;overflow=hidden;connectable=0;fillColor=none;top=0;left=0;bottom=0;right=0;align=left;spacingLeft=6;" parent="v4OOAaOMqKAMVvZkMY9a-37" vertex="1">
          <mxGeometry x="30" width="198" height="30" as="geometry">
            <mxRectangle width="198" height="30" as="alternateBounds" />
          </mxGeometry>
        </mxCell>
        <mxCell id="v4OOAaOMqKAMVvZkMY9a-40" value="" style="endArrow=ERzeroToMany;startArrow=ERone;endFill=1;startFill=0;exitX=0;exitY=0.5;exitDx=0;exitDy=0;entryX=0;entryY=0.5;entryDx=0;entryDy=0;edgeStyle=elbowEdgeStyle;" parent="1" source="v4OOAaOMqKAMVvZkMY9a-2" target="v4OOAaOMqKAMVvZkMY9a-18" edge="1">
          <mxGeometry width="100" height="100" relative="1" as="geometry">
            <mxPoint x="969" y="-745" as="sourcePoint" />
            <mxPoint x="969" y="-555" as="targetPoint" />
            <Array as="points">
              <mxPoint x="540" y="-640" />
            </Array>
          </mxGeometry>
        </mxCell>
        <mxCell id="v4OOAaOMqKAMVvZkMY9a-41" value="score" style="shape=table;startSize=30;container=1;collapsible=1;childLayout=tableLayout;fixedRows=1;rowLines=0;fontStyle=1;align=center;resizeLast=1;fillColor=#d5e8d4;strokeColor=#82b366;" parent="1" vertex="1">
          <mxGeometry x="310" y="-460" width="180" height="160" as="geometry" />
        </mxCell>
        <mxCell id="v4OOAaOMqKAMVvZkMY9a-42" value="" style="shape=partialRectangle;collapsible=0;dropTarget=0;pointerEvents=0;fillColor=none;points=[[0,0.5],[1,0.5]];portConstraint=eastwest;top=0;left=0;right=0;bottom=1;" parent="v4OOAaOMqKAMVvZkMY9a-41" vertex="1">
          <mxGeometry y="30" width="180" height="30" as="geometry" />
        </mxCell>
        <mxCell id="v4OOAaOMqKAMVvZkMY9a-43" value="PK" style="shape=partialRectangle;overflow=hidden;connectable=0;fillColor=none;top=0;left=0;bottom=0;right=0;fontStyle=1;" parent="v4OOAaOMqKAMVvZkMY9a-42" vertex="1">
          <mxGeometry width="30" height="30" as="geometry">
            <mxRectangle width="30" height="30" as="alternateBounds" />
          </mxGeometry>
        </mxCell>
        <mxCell id="v4OOAaOMqKAMVvZkMY9a-44" value="score_id int NOT NULL " style="shape=partialRectangle;overflow=hidden;connectable=0;fillColor=none;top=0;left=0;bottom=0;right=0;align=left;spacingLeft=6;fontStyle=5;" parent="v4OOAaOMqKAMVvZkMY9a-42" vertex="1">
          <mxGeometry x="30" width="150" height="30" as="geometry">
            <mxRectangle width="150" height="30" as="alternateBounds" />
          </mxGeometry>
        </mxCell>
        <mxCell id="v4OOAaOMqKAMVvZkMY9a-45" style="shape=partialRectangle;collapsible=0;dropTarget=0;pointerEvents=0;fillColor=none;points=[[0,0.5],[1,0.5]];portConstraint=eastwest;top=0;left=0;right=0;bottom=0;" parent="v4OOAaOMqKAMVvZkMY9a-41" vertex="1">
          <mxGeometry y="60" width="180" height="30" as="geometry" />
        </mxCell>
        <mxCell id="v4OOAaOMqKAMVvZkMY9a-46" value="FK1" style="shape=partialRectangle;overflow=hidden;connectable=0;fillColor=none;top=0;left=0;bottom=0;right=0;" parent="v4OOAaOMqKAMVvZkMY9a-45" vertex="1">
          <mxGeometry width="30" height="30" as="geometry">
            <mxRectangle width="30" height="30" as="alternateBounds" />
          </mxGeometry>
        </mxCell>
        <mxCell id="v4OOAaOMqKAMVvZkMY9a-47" value="user_id int NOT NULL" style="shape=partialRectangle;overflow=hidden;connectable=0;fillColor=none;top=0;left=0;bottom=0;right=0;align=left;spacingLeft=6;" parent="v4OOAaOMqKAMVvZkMY9a-45" vertex="1">
          <mxGeometry x="30" width="150" height="30" as="geometry">
            <mxRectangle width="150" height="30" as="alternateBounds" />
          </mxGeometry>
        </mxCell>
        <mxCell id="4JEu-Nt3bN0nSYh3B1SR-83" style="shape=partialRectangle;collapsible=0;dropTarget=0;pointerEvents=0;fillColor=none;points=[[0,0.5],[1,0.5]];portConstraint=eastwest;top=0;left=0;right=0;bottom=0;" parent="v4OOAaOMqKAMVvZkMY9a-41" vertex="1">
          <mxGeometry y="90" width="180" height="30" as="geometry" />
        </mxCell>
        <mxCell id="4JEu-Nt3bN0nSYh3B1SR-84" value="FK2" style="shape=partialRectangle;overflow=hidden;connectable=0;fillColor=none;top=0;left=0;bottom=0;right=0;" parent="4JEu-Nt3bN0nSYh3B1SR-83" vertex="1">
          <mxGeometry width="30" height="30" as="geometry">
            <mxRectangle width="30" height="30" as="alternateBounds" />
          </mxGeometry>
        </mxCell>
        <mxCell id="4JEu-Nt3bN0nSYh3B1SR-85" value="map_id" style="shape=partialRectangle;overflow=hidden;connectable=0;fillColor=none;top=0;left=0;bottom=0;right=0;align=left;spacingLeft=6;" parent="4JEu-Nt3bN0nSYh3B1SR-83" vertex="1">
          <mxGeometry x="30" width="150" height="30" as="geometry">
            <mxRectangle width="150" height="30" as="alternateBounds" />
          </mxGeometry>
        </mxCell>
        <mxCell id="v4OOAaOMqKAMVvZkMY9a-48" value="" style="shape=partialRectangle;collapsible=0;dropTarget=0;pointerEvents=0;fillColor=none;points=[[0,0.5],[1,0.5]];portConstraint=eastwest;top=0;left=0;right=0;bottom=0;" parent="v4OOAaOMqKAMVvZkMY9a-41" vertex="1">
          <mxGeometry y="120" width="180" height="30" as="geometry" />
        </mxCell>
        <mxCell id="v4OOAaOMqKAMVvZkMY9a-49" value="" style="shape=partialRectangle;overflow=hidden;connectable=0;fillColor=none;top=0;left=0;bottom=0;right=0;" parent="v4OOAaOMqKAMVvZkMY9a-48" vertex="1">
          <mxGeometry width="30" height="30" as="geometry">
            <mxRectangle width="30" height="30" as="alternateBounds" />
          </mxGeometry>
        </mxCell>
        <mxCell id="v4OOAaOMqKAMVvZkMY9a-50" value="score int NOT NULL" style="shape=partialRectangle;overflow=hidden;connectable=0;fillColor=none;top=0;left=0;bottom=0;right=0;align=left;spacingLeft=6;" parent="v4OOAaOMqKAMVvZkMY9a-48" vertex="1">
          <mxGeometry x="30" width="150" height="30" as="geometry">
            <mxRectangle width="150" height="30" as="alternateBounds" />
          </mxGeometry>
        </mxCell>
        <mxCell id="v4OOAaOMqKAMVvZkMY9a-52" value="" style="fontSize=12;html=1;endArrow=ERone;startArrow=ERone;startFill=0;exitX=0;exitY=0.5;exitDx=0;exitDy=0;endFill=0;entryX=0;entryY=0.5;entryDx=0;entryDy=0;strokeColor=none;" parent="1" source="v4OOAaOMqKAMVvZkMY9a-34" target="D1n0Vyd0BsLQv1EA76nx-12" edge="1">
          <mxGeometry width="100" height="100" relative="1" as="geometry">
            <mxPoint x="601" y="370" as="sourcePoint" />
            <mxPoint x="410" y="340" as="targetPoint" />
          </mxGeometry>
        </mxCell>
        <mxCell id="v4OOAaOMqKAMVvZkMY9a-88" value="Map_Enemies" style="shape=table;startSize=30;container=1;collapsible=1;childLayout=tableLayout;fixedRows=1;rowLines=0;fontStyle=1;align=center;resizeLast=1;fillColor=#f8cecc;strokeColor=#b85450;" parent="1" vertex="1">
          <mxGeometry x="314" y="-690" width="180" height="190" as="geometry" />
        </mxCell>
        <mxCell id="v4OOAaOMqKAMVvZkMY9a-89" value="" style="shape=partialRectangle;collapsible=0;dropTarget=0;pointerEvents=0;fillColor=none;top=0;left=0;bottom=0;right=0;points=[[0,0.5],[1,0.5]];portConstraint=eastwest;" parent="v4OOAaOMqKAMVvZkMY9a-88" vertex="1">
          <mxGeometry y="30" width="180" height="30" as="geometry" />
        </mxCell>
        <mxCell id="v4OOAaOMqKAMVvZkMY9a-90" value="PK" style="shape=partialRectangle;connectable=0;fillColor=none;top=0;left=0;bottom=0;right=0;fontStyle=1;overflow=hidden;" parent="v4OOAaOMqKAMVvZkMY9a-89" vertex="1">
          <mxGeometry width="60" height="30" as="geometry">
            <mxRectangle width="60" height="30" as="alternateBounds" />
          </mxGeometry>
        </mxCell>
        <mxCell id="v4OOAaOMqKAMVvZkMY9a-91" value="id" style="shape=partialRectangle;connectable=0;fillColor=none;top=0;left=0;bottom=0;right=0;align=left;spacingLeft=6;fontStyle=5;overflow=hidden;" parent="v4OOAaOMqKAMVvZkMY9a-89" vertex="1">
          <mxGeometry x="60" width="120" height="30" as="geometry">
            <mxRectangle width="120" height="30" as="alternateBounds" />
          </mxGeometry>
        </mxCell>
        <mxCell id="v4OOAaOMqKAMVvZkMY9a-92" value="" style="shape=partialRectangle;collapsible=0;dropTarget=0;pointerEvents=0;fillColor=none;top=0;left=0;bottom=1;right=0;points=[[0,0.5],[1,0.5]];portConstraint=eastwest;" parent="v4OOAaOMqKAMVvZkMY9a-88" vertex="1">
          <mxGeometry y="60" width="180" height="30" as="geometry" />
        </mxCell>
        <mxCell id="v4OOAaOMqKAMVvZkMY9a-93" value="FK3" style="shape=partialRectangle;connectable=0;fillColor=none;top=0;left=0;bottom=0;right=0;fontStyle=1;overflow=hidden;" parent="v4OOAaOMqKAMVvZkMY9a-92" vertex="1">
          <mxGeometry width="60" height="30" as="geometry">
            <mxRectangle width="60" height="30" as="alternateBounds" />
          </mxGeometry>
        </mxCell>
        <mxCell id="v4OOAaOMqKAMVvZkMY9a-94" value="player_map_id" style="shape=partialRectangle;connectable=0;fillColor=none;top=0;left=0;bottom=0;right=0;align=left;spacingLeft=6;fontStyle=5;overflow=hidden;" parent="v4OOAaOMqKAMVvZkMY9a-92" vertex="1">
          <mxGeometry x="60" width="120" height="30" as="geometry">
            <mxRectangle width="120" height="30" as="alternateBounds" />
          </mxGeometry>
        </mxCell>
        <mxCell id="v4OOAaOMqKAMVvZkMY9a-95" value="" style="shape=partialRectangle;collapsible=0;dropTarget=0;pointerEvents=0;fillColor=none;top=0;left=0;bottom=0;right=0;points=[[0,0.5],[1,0.5]];portConstraint=eastwest;" parent="v4OOAaOMqKAMVvZkMY9a-88" vertex="1">
          <mxGeometry y="90" width="180" height="30" as="geometry" />
        </mxCell>
        <mxCell id="v4OOAaOMqKAMVvZkMY9a-96" value="" style="shape=partialRectangle;connectable=0;fillColor=none;top=0;left=0;bottom=0;right=0;editable=1;overflow=hidden;" parent="v4OOAaOMqKAMVvZkMY9a-95" vertex="1">
          <mxGeometry width="60" height="30" as="geometry">
            <mxRectangle width="60" height="30" as="alternateBounds" />
          </mxGeometry>
        </mxCell>
        <mxCell id="v4OOAaOMqKAMVvZkMY9a-97" value="x_coords" style="shape=partialRectangle;connectable=0;fillColor=none;top=0;left=0;bottom=0;right=0;align=left;spacingLeft=6;overflow=hidden;" parent="v4OOAaOMqKAMVvZkMY9a-95" vertex="1">
          <mxGeometry x="60" width="120" height="30" as="geometry">
            <mxRectangle width="120" height="30" as="alternateBounds" />
          </mxGeometry>
        </mxCell>
        <mxCell id="v4OOAaOMqKAMVvZkMY9a-98" value="" style="shape=partialRectangle;collapsible=0;dropTarget=0;pointerEvents=0;fillColor=none;top=0;left=0;bottom=0;right=0;points=[[0,0.5],[1,0.5]];portConstraint=eastwest;" parent="v4OOAaOMqKAMVvZkMY9a-88" vertex="1">
          <mxGeometry y="120" width="180" height="30" as="geometry" />
        </mxCell>
        <mxCell id="v4OOAaOMqKAMVvZkMY9a-99" value="" style="shape=partialRectangle;connectable=0;fillColor=none;top=0;left=0;bottom=0;right=0;editable=1;overflow=hidden;" parent="v4OOAaOMqKAMVvZkMY9a-98" vertex="1">
          <mxGeometry width="60" height="30" as="geometry">
            <mxRectangle width="60" height="30" as="alternateBounds" />
          </mxGeometry>
        </mxCell>
        <mxCell id="v4OOAaOMqKAMVvZkMY9a-100" value="y_coords" style="shape=partialRectangle;connectable=0;fillColor=none;top=0;left=0;bottom=0;right=0;align=left;spacingLeft=6;overflow=hidden;" parent="v4OOAaOMqKAMVvZkMY9a-98" vertex="1">
          <mxGeometry x="60" width="120" height="30" as="geometry">
            <mxRectangle width="120" height="30" as="alternateBounds" />
          </mxGeometry>
        </mxCell>
        <mxCell id="v4OOAaOMqKAMVvZkMY9a-101" style="shape=partialRectangle;collapsible=0;dropTarget=0;pointerEvents=0;fillColor=none;top=0;left=0;bottom=0;right=0;points=[[0,0.5],[1,0.5]];portConstraint=eastwest;" parent="v4OOAaOMqKAMVvZkMY9a-88" vertex="1">
          <mxGeometry y="150" width="180" height="30" as="geometry" />
        </mxCell>
        <mxCell id="v4OOAaOMqKAMVvZkMY9a-102" style="shape=partialRectangle;connectable=0;fillColor=none;top=0;left=0;bottom=0;right=0;editable=1;overflow=hidden;" parent="v4OOAaOMqKAMVvZkMY9a-101" vertex="1">
          <mxGeometry width="60" height="30" as="geometry">
            <mxRectangle width="60" height="30" as="alternateBounds" />
          </mxGeometry>
        </mxCell>
        <mxCell id="v4OOAaOMqKAMVvZkMY9a-103" value="enemy_type" style="shape=partialRectangle;connectable=0;fillColor=none;top=0;left=0;bottom=0;right=0;align=left;spacingLeft=6;overflow=hidden;" parent="v4OOAaOMqKAMVvZkMY9a-101" vertex="1">
          <mxGeometry x="60" width="120" height="30" as="geometry">
            <mxRectangle width="120" height="30" as="alternateBounds" />
          </mxGeometry>
        </mxCell>
        <mxCell id="v4OOAaOMqKAMVvZkMY9a-125" value="Items" style="rounded=0;whiteSpace=wrap;html=1;fillColor=#7EA6E0;fontColor=#FFFFFF;fontSize=16;fontStyle=1" parent="1" vertex="1">
          <mxGeometry x="620" y="-110" width="180" height="50" as="geometry" />
        </mxCell>
        <mxCell id="v4OOAaOMqKAMVvZkMY9a-126" value="Joueurs" style="rounded=0;whiteSpace=wrap;html=1;fillColor=#d5e8d4;strokeColor=#82b366;fontSize=16;fontStyle=1" parent="1" vertex="1">
          <mxGeometry x="620" y="-180" width="180" height="50" as="geometry" />
        </mxCell>
        <mxCell id="v4OOAaOMqKAMVvZkMY9a-127" value="Map" style="rounded=0;whiteSpace=wrap;html=1;fillColor=#f8cecc;strokeColor=#b85450;fontSize=16;fontStyle=1" parent="1" vertex="1">
          <mxGeometry x="620" y="-250" width="180" height="50" as="geometry" />
        </mxCell>
        <mxCell id="v4OOAaOMqKAMVvZkMY9a-128" value="Commentaires" style="rounded=0;whiteSpace=wrap;html=1;fillColor=#e1d5e7;strokeColor=#9673a6;fontSize=16;fontStyle=1" parent="1" vertex="1">
          <mxGeometry x="620" y="-320" width="180" height="50" as="geometry" />
        </mxCell>
        <mxCell id="v4OOAaOMqKAMVvZkMY9a-130" value="" style="endArrow=oval;startArrow=none;endFill=0;startFill=0;" parent="1" edge="1">
          <mxGeometry width="100" height="100" relative="1" as="geometry">
            <mxPoint x="350" y="-250.69000000000005" as="sourcePoint" />
            <mxPoint x="422" y="-251" as="targetPoint" />
          </mxGeometry>
        </mxCell>
        <mxCell id="v4OOAaOMqKAMVvZkMY9a-131" value="&lt;font color=&quot;#000000&quot;&gt;Optionel&lt;/font&gt;" style="text;html=1;strokeColor=none;fillColor=none;align=center;verticalAlign=middle;whiteSpace=wrap;rounded=0;fontColor=#FFFFFF;fontSize=15;" parent="1" vertex="1">
          <mxGeometry x="350" y="-240" width="76" height="40" as="geometry" />
        </mxCell>
        <mxCell id="v4OOAaOMqKAMVvZkMY9a-132" value="" style="edgeStyle=entityRelationEdgeStyle;endArrow=ERmany;startArrow=none;endFill=0;startFill=0;" parent="1" edge="1">
          <mxGeometry width="100" height="100" relative="1" as="geometry">
            <mxPoint x="342" y="-170" as="sourcePoint" />
            <mxPoint x="414" y="-170" as="targetPoint" />
          </mxGeometry>
        </mxCell>
        <mxCell id="v4OOAaOMqKAMVvZkMY9a-135" value="" style="edgeStyle=entityRelationEdgeStyle;endArrow=ERone;startArrow=none;endFill=0;startFill=0;" parent="1" edge="1">
          <mxGeometry width="100" height="100" relative="1" as="geometry">
            <mxPoint x="478" y="-250.32999999999993" as="sourcePoint" />
            <mxPoint x="552" y="-250" as="targetPoint" />
          </mxGeometry>
        </mxCell>
        <mxCell id="v4OOAaOMqKAMVvZkMY9a-136" value="&lt;font color=&quot;#000000&quot;&gt;Obligatoire&lt;/font&gt;" style="text;html=1;strokeColor=none;fillColor=none;align=center;verticalAlign=middle;whiteSpace=wrap;rounded=0;fontColor=#FFFFFF;fontSize=15;" parent="1" vertex="1">
          <mxGeometry x="478" y="-240" width="76" height="40" as="geometry" />
        </mxCell>
        <mxCell id="v4OOAaOMqKAMVvZkMY9a-137" value="&lt;font color=&quot;#000000&quot;&gt;Multiples&lt;/font&gt;" style="text;html=1;strokeColor=none;fillColor=none;align=center;verticalAlign=middle;whiteSpace=wrap;rounded=0;fontColor=#FFFFFF;fontSize=15;" parent="1" vertex="1">
          <mxGeometry x="342" y="-160" width="76" height="40" as="geometry" />
        </mxCell>
        <mxCell id="v4OOAaOMqKAMVvZkMY9a-138" value="" style="edgeStyle=entityRelationEdgeStyle;endArrow=ERmandOne;startArrow=none;endFill=0;startFill=0;" parent="1" edge="1">
          <mxGeometry width="100" height="100" relative="1" as="geometry">
            <mxPoint x="477.9999999999998" y="-170" as="sourcePoint" />
            <mxPoint x="547.9999999999998" y="-170" as="targetPoint" />
          </mxGeometry>
        </mxCell>
        <mxCell id="v4OOAaOMqKAMVvZkMY9a-139" value="&lt;font color=&quot;#000000&quot;&gt;Solo Pogo (obligatoire)&lt;/font&gt;" style="text;html=1;strokeColor=none;fillColor=none;align=center;verticalAlign=middle;whiteSpace=wrap;rounded=0;fontColor=#FFFFFF;fontSize=15;" parent="1" vertex="1">
          <mxGeometry x="478" y="-160" width="76" height="40" as="geometry" />
        </mxCell>
        <mxCell id="4JEu-Nt3bN0nSYh3B1SR-40" value="Player_Map" style="shape=table;startSize=30;container=1;collapsible=1;childLayout=tableLayout;fixedRows=1;rowLines=0;fontStyle=1;align=center;resizeLast=1;fillColor=#f8cecc;strokeColor=#b85450;gradientColor=none;gradientDirection=radial;" parent="1" vertex="1">
          <mxGeometry x="76" y="-690" width="174" height="190" as="geometry" />
        </mxCell>
        <mxCell id="4JEu-Nt3bN0nSYh3B1SR-41" value="" style="shape=partialRectangle;collapsible=0;dropTarget=0;pointerEvents=0;fillColor=none;top=0;left=0;bottom=0;right=0;points=[[0,0.5],[1,0.5]];portConstraint=eastwest;" parent="4JEu-Nt3bN0nSYh3B1SR-40" vertex="1">
          <mxGeometry y="30" width="174" height="30" as="geometry" />
        </mxCell>
        <mxCell id="4JEu-Nt3bN0nSYh3B1SR-42" value="PK" style="shape=partialRectangle;connectable=0;fillColor=none;top=0;left=0;bottom=0;right=0;fontStyle=1;overflow=hidden;" parent="4JEu-Nt3bN0nSYh3B1SR-41" vertex="1">
          <mxGeometry width="60" height="30" as="geometry">
            <mxRectangle width="60" height="30" as="alternateBounds" />
          </mxGeometry>
        </mxCell>
        <mxCell id="4JEu-Nt3bN0nSYh3B1SR-43" value="id" style="shape=partialRectangle;connectable=0;fillColor=none;top=0;left=0;bottom=0;right=0;align=left;spacingLeft=6;fontStyle=5;overflow=hidden;" parent="4JEu-Nt3bN0nSYh3B1SR-41" vertex="1">
          <mxGeometry x="60" width="114" height="30" as="geometry">
            <mxRectangle width="114" height="30" as="alternateBounds" />
          </mxGeometry>
        </mxCell>
        <mxCell id="4JEu-Nt3bN0nSYh3B1SR-44" style="shape=partialRectangle;collapsible=0;dropTarget=0;pointerEvents=0;fillColor=none;top=0;left=0;bottom=0;right=0;points=[[0,0.5],[1,0.5]];portConstraint=eastwest;" parent="4JEu-Nt3bN0nSYh3B1SR-40" vertex="1">
          <mxGeometry y="60" width="174" height="30" as="geometry" />
        </mxCell>
        <mxCell id="4JEu-Nt3bN0nSYh3B1SR-45" value="FK1" style="shape=partialRectangle;connectable=0;fillColor=none;top=0;left=0;bottom=0;right=0;fontStyle=1;overflow=hidden;" parent="4JEu-Nt3bN0nSYh3B1SR-44" vertex="1">
          <mxGeometry width="60" height="30" as="geometry">
            <mxRectangle width="60" height="30" as="alternateBounds" />
          </mxGeometry>
        </mxCell>
        <mxCell id="4JEu-Nt3bN0nSYh3B1SR-46" value="player_id" style="shape=partialRectangle;connectable=0;fillColor=none;top=0;left=0;bottom=0;right=0;align=left;spacingLeft=6;fontStyle=5;overflow=hidden;" parent="4JEu-Nt3bN0nSYh3B1SR-44" vertex="1">
          <mxGeometry x="60" width="114" height="30" as="geometry">
            <mxRectangle width="114" height="30" as="alternateBounds" />
          </mxGeometry>
        </mxCell>
        <mxCell id="4JEu-Nt3bN0nSYh3B1SR-50" value="" style="shape=partialRectangle;collapsible=0;dropTarget=0;pointerEvents=0;fillColor=none;top=0;left=0;bottom=1;right=0;points=[[0,0.5],[1,0.5]];portConstraint=eastwest;" parent="4JEu-Nt3bN0nSYh3B1SR-40" vertex="1">
          <mxGeometry y="90" width="174" height="30" as="geometry" />
        </mxCell>
        <mxCell id="4JEu-Nt3bN0nSYh3B1SR-51" value="FK3" style="shape=partialRectangle;connectable=0;fillColor=none;top=0;left=0;bottom=0;right=0;fontStyle=1;overflow=hidden;" parent="4JEu-Nt3bN0nSYh3B1SR-50" vertex="1">
          <mxGeometry width="60" height="30" as="geometry">
            <mxRectangle width="60" height="30" as="alternateBounds" />
          </mxGeometry>
        </mxCell>
        <mxCell id="4JEu-Nt3bN0nSYh3B1SR-52" value="map_id" style="shape=partialRectangle;connectable=0;fillColor=none;top=0;left=0;bottom=0;right=0;align=left;spacingLeft=6;fontStyle=5;overflow=hidden;" parent="4JEu-Nt3bN0nSYh3B1SR-50" vertex="1">
          <mxGeometry x="60" width="114" height="30" as="geometry">
            <mxRectangle width="114" height="30" as="alternateBounds" />
          </mxGeometry>
        </mxCell>
        <mxCell id="4JEu-Nt3bN0nSYh3B1SR-53" value="" style="shape=partialRectangle;collapsible=0;dropTarget=0;pointerEvents=0;fillColor=none;top=0;left=0;bottom=0;right=0;points=[[0,0.5],[1,0.5]];portConstraint=eastwest;" parent="4JEu-Nt3bN0nSYh3B1SR-40" vertex="1">
          <mxGeometry y="120" width="174" height="30" as="geometry" />
        </mxCell>
        <mxCell id="4JEu-Nt3bN0nSYh3B1SR-54" value="" style="shape=partialRectangle;connectable=0;fillColor=none;top=0;left=0;bottom=0;right=0;editable=1;overflow=hidden;" parent="4JEu-Nt3bN0nSYh3B1SR-53" vertex="1">
          <mxGeometry width="60" height="30" as="geometry">
            <mxRectangle width="60" height="30" as="alternateBounds" />
          </mxGeometry>
        </mxCell>
        <mxCell id="4JEu-Nt3bN0nSYh3B1SR-55" value="active_checkpoint_id" style="shape=partialRectangle;connectable=0;fillColor=none;top=0;left=0;bottom=0;right=0;align=left;spacingLeft=6;overflow=hidden;" parent="4JEu-Nt3bN0nSYh3B1SR-53" vertex="1">
          <mxGeometry x="60" width="114" height="30" as="geometry">
            <mxRectangle width="114" height="30" as="alternateBounds" />
          </mxGeometry>
        </mxCell>
        <mxCell id="4JEu-Nt3bN0nSYh3B1SR-62" style="shape=partialRectangle;collapsible=0;dropTarget=0;pointerEvents=0;fillColor=none;top=0;left=0;bottom=0;right=0;points=[[0,0.5],[1,0.5]];portConstraint=eastwest;" parent="4JEu-Nt3bN0nSYh3B1SR-40" vertex="1">
          <mxGeometry y="150" width="174" height="30" as="geometry" />
        </mxCell>
        <mxCell id="4JEu-Nt3bN0nSYh3B1SR-63" style="shape=partialRectangle;connectable=0;fillColor=none;top=0;left=0;bottom=0;right=0;editable=1;overflow=hidden;" parent="4JEu-Nt3bN0nSYh3B1SR-62" vertex="1">
          <mxGeometry width="60" height="30" as="geometry">
            <mxRectangle width="60" height="30" as="alternateBounds" />
          </mxGeometry>
        </mxCell>
        <mxCell id="4JEu-Nt3bN0nSYh3B1SR-64" value="tempative_score" style="shape=partialRectangle;connectable=0;fillColor=none;top=0;left=0;bottom=0;right=0;align=left;spacingLeft=6;overflow=hidden;" parent="4JEu-Nt3bN0nSYh3B1SR-62" vertex="1">
          <mxGeometry x="60" width="114" height="30" as="geometry">
            <mxRectangle width="114" height="30" as="alternateBounds" />
          </mxGeometry>
        </mxCell>
        <mxCell id="4JEu-Nt3bN0nSYh3B1SR-72" style="rounded=0;orthogonalLoop=1;jettySize=auto;html=1;startArrow=ERmandOne;startFill=0;endArrow=ERmandOne;endFill=0;edgeStyle=orthogonalEdgeStyle;" parent="1" source="D1n0Vyd0BsLQv1EA76nx-12" target="v4OOAaOMqKAMVvZkMY9a-34" edge="1">
          <mxGeometry relative="1" as="geometry">
            <Array as="points">
              <mxPoint x="32" y="-945" />
              <mxPoint x="32" y="-1094" />
            </Array>
          </mxGeometry>
        </mxCell>
        <mxCell id="4JEu-Nt3bN0nSYh3B1SR-74" style="edgeStyle=orthogonalEdgeStyle;rounded=0;orthogonalLoop=1;jettySize=auto;html=1;" parent="1" source="qzxufjcyt8zJq0m5Qnw3-76" target="qzxufjcyt8zJq0m5Qnw3-105" edge="1">
          <mxGeometry relative="1" as="geometry" />
        </mxCell>
        <mxCell id="4JEu-Nt3bN0nSYh3B1SR-75" style="rounded=0;orthogonalLoop=1;jettySize=auto;html=1;edgeStyle=orthogonalEdgeStyle;" parent="1" source="qzxufjcyt8zJq0m5Qnw3-102" target="qzxufjcyt8zJq0m5Qnw3-92" edge="1">
          <mxGeometry relative="1" as="geometry">
            <Array as="points">
              <mxPoint x="656" y="-935" />
              <mxPoint x="656" y="-990" />
              <mxPoint x="616" y="-990" />
              <mxPoint x="616" y="-1085" />
            </Array>
          </mxGeometry>
        </mxCell>
        <mxCell id="4JEu-Nt3bN0nSYh3B1SR-76" style="edgeStyle=orthogonalEdgeStyle;rounded=0;orthogonalLoop=1;jettySize=auto;html=1;startArrow=ERmany;startFill=0;endArrow=ERmandOne;endFill=0;" parent="1" source="qzxufjcyt8zJq0m5Qnw3-102" target="D1n0Vyd0BsLQv1EA76nx-8" edge="1">
          <mxGeometry relative="1" as="geometry">
            <mxPoint x="760" y="-830" as="targetPoint" />
            <Array as="points">
              <mxPoint x="680" y="-935" />
              <mxPoint x="680" y="-860" />
              <mxPoint x="540" y="-860" />
              <mxPoint x="540" y="-745" />
            </Array>
          </mxGeometry>
        </mxCell>
        <mxCell id="4JEu-Nt3bN0nSYh3B1SR-77" style="rounded=0;orthogonalLoop=1;jettySize=auto;html=1;startArrow=ERmandOne;startFill=0;endArrow=ERmandOne;endFill=0;edgeStyle=orthogonalEdgeStyle;entryX=0.995;entryY=0.067;entryDx=0;entryDy=0;entryPerimeter=0;" parent="1" source="D1n0Vyd0BsLQv1EA76nx-5" target="D1n0Vyd0BsLQv1EA76nx-12" edge="1">
          <mxGeometry relative="1" as="geometry">
            <mxPoint x="62" y="-935" as="sourcePoint" />
            <mxPoint x="62" y="-1084" as="targetPoint" />
          </mxGeometry>
        </mxCell>
        <mxCell id="4JEu-Nt3bN0nSYh3B1SR-78" style="rounded=0;orthogonalLoop=1;jettySize=auto;html=1;startArrow=ERmandOne;startFill=0;endArrow=ERmandOne;endFill=0;exitX=0;exitY=0.5;exitDx=0;exitDy=0;edgeStyle=elbowEdgeStyle;" parent="1" source="4JEu-Nt3bN0nSYh3B1SR-44" target="D1n0Vyd0BsLQv1EA76nx-12" edge="1">
          <mxGeometry relative="1" as="geometry">
            <mxPoint x="254" y="-765" as="sourcePoint" />
            <mxPoint x="268" y="-935" as="targetPoint" />
            <Array as="points">
              <mxPoint x="30" y="-780" />
            </Array>
          </mxGeometry>
        </mxCell>
        <mxCell id="4JEu-Nt3bN0nSYh3B1SR-80" style="rounded=0;orthogonalLoop=1;jettySize=auto;html=1;startArrow=ERmandOne;startFill=0;endArrow=ERmandOne;endFill=0;exitX=0;exitY=0.5;exitDx=0;exitDy=0;edgeStyle=orthogonalEdgeStyle;" parent="1" source="v4OOAaOMqKAMVvZkMY9a-92" target="4JEu-Nt3bN0nSYh3B1SR-41" edge="1">
          <mxGeometry relative="1" as="geometry">
            <mxPoint x="392" y="-320" as="sourcePoint" />
            <mxPoint x="368" y="-650" as="targetPoint" />
          </mxGeometry>
        </mxCell>
        <mxCell id="4JEu-Nt3bN0nSYh3B1SR-81" style="rounded=0;orthogonalLoop=1;jettySize=auto;html=1;startArrow=ERmandOne;startFill=0;endArrow=ERmandOne;endFill=0;edgeStyle=elbowEdgeStyle;" parent="1" source="qzxufjcyt8zJq0m5Qnw3-41" target="4JEu-Nt3bN0nSYh3B1SR-50" edge="1">
          <mxGeometry relative="1" as="geometry">
            <mxPoint x="56" y="-380" as="sourcePoint" />
            <mxPoint x="32" y="-710" as="targetPoint" />
            <Array as="points">
              <mxPoint x="40" y="-500" />
            </Array>
          </mxGeometry>
        </mxCell>
        <mxCell id="4JEu-Nt3bN0nSYh3B1SR-82" style="rounded=0;orthogonalLoop=1;jettySize=auto;html=1;startArrow=ERoneToMany;startFill=0;endArrow=ERmandOne;endFill=0;edgeStyle=elbowEdgeStyle;" parent="1" source="qzxufjcyt8zJq0m5Qnw3-57" target="qzxufjcyt8zJq0m5Qnw3-41" edge="1">
          <mxGeometry relative="1" as="geometry">
            <mxPoint x="52" y="-210" as="sourcePoint" />
            <mxPoint x="52" y="-380" as="targetPoint" />
            <Array as="points">
              <mxPoint x="40" y="-300" />
            </Array>
          </mxGeometry>
        </mxCell>
        <mxCell id="4JEu-Nt3bN0nSYh3B1SR-86" style="edgeStyle=orthogonalEdgeStyle;rounded=0;orthogonalLoop=1;jettySize=auto;html=1;startArrow=ERmandOne;startFill=0;endArrow=ERmandOne;endFill=0;" parent="1" source="4JEu-Nt3bN0nSYh3B1SR-83" target="qzxufjcyt8zJq0m5Qnw3-41" edge="1">
          <mxGeometry relative="1" as="geometry" />
        </mxCell>
        <mxCell id="4JEu-Nt3bN0nSYh3B1SR-87" style="rounded=0;orthogonalLoop=1;jettySize=auto;html=1;entryX=1;entryY=0.5;entryDx=0;entryDy=0;elbow=vertical;startArrow=ERmany;startFill=0;exitX=0;exitY=0.5;exitDx=0;exitDy=0;edgeStyle=orthogonalEdgeStyle;endArrow=ERmandOne;endFill=0;" parent="1" source="v4OOAaOMqKAMVvZkMY9a-42" target="D1n0Vyd0BsLQv1EA76nx-12" edge="1">
          <mxGeometry relative="1" as="geometry">
            <mxPoint x="300" y="-430" as="sourcePoint" />
            <mxPoint x="350" y="-900" as="targetPoint" />
            <Array as="points">
              <mxPoint x="270" y="-415" />
              <mxPoint x="270" y="-945" />
            </Array>
          </mxGeometry>
        </mxCell>
      </root>
    </mxGraphModel>
  </diagram>
</mxfile>
